<svg xmlns="http://www.w3.org/2000/svg" width="20" height="20" viewBox="0 0 20 20">
  <g id="vuesax_outline_message-edit" data-name="vuesax/outline/message-edit" transform="translate(-246 -416)">
    <g id="message-edit" transform="translate(246 416)">
      <path id="Vector" d="M12.292,17.917H1.458A1.465,1.465,0,0,1,0,16.458V5.625C0,1.942,1.942,0,5.625,0h6.667c3.683,0,5.625,1.942,5.625,5.625v6.667C17.917,15.975,15.975,17.917,12.292,17.917ZM5.625,1.25C2.642,1.25,1.25,2.642,1.25,5.625V16.458a.206.206,0,0,0,.208.208H12.292c2.983,0,4.375-1.392,4.375-4.375V5.625c0-2.983-1.392-4.375-4.375-4.375Z" transform="translate(1.042 1.042)" fill="#8ca5be"/>
      <path id="Vector-2" data-name="Vector" d="M1.42,9.58A1.444,1.444,0,0,1,.4,9.18,1.425,1.425,0,0,1,.02,7.93L.253,6.28A2.121,2.121,0,0,1,.786,5.2L5.111.88A2.278,2.278,0,0,1,8.7.88,2.481,2.481,0,0,1,9.57,2.872a2.655,2.655,0,0,1-.867,1.6L4.378,8.8A2.167,2.167,0,0,1,3.3,9.338l-1.65.233C1.578,9.572,1.495,9.58,1.42,9.58ZM6.9,1.247a1.38,1.38,0,0,0-.9.508L1.678,6.08a1.013,1.013,0,0,0-.183.367L1.261,8.1a.257.257,0,0,0,.033.192.257.257,0,0,0,.192.033l1.65-.233A.95.95,0,0,0,3.5,7.9L7.828,3.58a1.5,1.5,0,0,0,.508-.842,1.341,1.341,0,0,0-.508-.983A1.44,1.44,0,0,0,6.9,1.247Z" transform="translate(5.205 5.212)" fill="#8ca5be"/>
      <path id="Vector-3" data-name="Vector" d="M3.331,3.965a.537.537,0,0,1-.167-.025A4.567,4.567,0,0,1,.023.8.633.633,0,0,1,.456.023a.62.62,0,0,1,.767.433A3.322,3.322,0,0,0,3.5,2.731a.629.629,0,0,1,.433.775A.623.623,0,0,1,3.331,3.965Z" transform="translate(9.519 6.519)" fill="#8ca5be"/>
      <path id="Vector-4" data-name="Vector" d="M0,0H20V20H0Z" fill="none" opacity="0"/>
    </g>
  </g>
</svg>
