<svg xmlns="http://www.w3.org/2000/svg" width="20" height="20" viewBox="0 0 20 20">
  <g id="vuesax_outline_trash" data-name="vuesax/outline/trash" transform="translate(-83 -229)">
    <g id="trash" transform="translate(83 229)">
      <path id="Vector" d="M15.628,1.68h-.067A65.647,65.647,0,0,0,2.395,1.513l-1.7.167A.629.629,0,0,1,0,1.113.621.621,0,0,1,.561.43l1.7-.167A67.62,67.62,0,0,1,15.686.43a.626.626,0,0,1,.558.683A.617.617,0,0,1,15.628,1.68Z" transform="translate(1.872 3.929)" fill="#8ca5be"/>
      <path id="Vector-2" data-name="Vector" d="M.626,3.725a.513.513,0,0,1-.108-.008A.627.627,0,0,1,.009,3L.192,1.908C.326,1.108.509,0,2.451,0H4.634c1.95,0,2.133,1.15,2.258,1.917L7.076,3a.621.621,0,1,1-1.225.208L5.667,2.125c-.117-.725-.142-.867-1.025-.867H2.459c-.883,0-.9.117-1.025.858L1.242,3.2A.625.625,0,0,1,.626,3.725Z" transform="translate(6.458 1.042)" fill="#8ca5be"/>
      <path id="Vector-3" data-name="Vector" d="M9.01,11.967H3.66C.752,11.967.635,10.359.543,9.059L0,.667A.631.631,0,0,1,.585,0a.631.631,0,0,1,.667.583l.542,8.392c.092,1.267.125,1.742,1.867,1.742H9.01c1.75,0,1.783-.475,1.867-1.742L11.418.584A.637.637,0,0,1,12.085,0a.626.626,0,0,1,.583.667l-.542,8.392C12.035,10.359,11.918,11.967,9.01,11.967Z" transform="translate(3.665 6.991)" fill="#8ca5be"/>
      <path id="Vector-4" data-name="Vector" d="M3.4,1.25H.625A.63.63,0,0,1,0,.625.63.63,0,0,1,.625,0H3.4a.63.63,0,0,1,.625.625A.63.63,0,0,1,3.4,1.25Z" transform="translate(7.983 13.125)" fill="#8ca5be"/>
      <path id="Vector-5" data-name="Vector" d="M4.792,1.25H.625A.63.63,0,0,1,0,.625.63.63,0,0,1,.625,0H4.792a.63.63,0,0,1,.625.625A.63.63,0,0,1,4.792,1.25Z" transform="translate(7.292 9.792)" fill="#8ca5be"/>
      <path id="Vector-6" data-name="Vector" d="M0,0H20V20H0Z" fill="none" opacity="0"/>
    </g>
  </g>
</svg>
